<svg id="visual" viewBox="0 0 900 600" width="900" height="600" xmlns="http://www.w3.org/2000/svg" xmlns:xlink="http://www.w3.org/1999/xlink" version="1.1"><rect x="0" y="0" width="900" height="600" fill="#48a9f3"></rect><path d="M0 437L21.5 438.5C43 440 86 443 128.8 440.7C171.7 438.3 214.3 430.7 257.2 423.7C300 416.7 343 410.3 385.8 416.5C428.7 422.7 471.3 441.3 514.2 452C557 462.7 600 465.3 642.8 466.5C685.7 467.7 728.3 467.3 771.2 463C814 458.7 857 450.3 878.5 446.2L900 442L900 601L878.5 601C857 601 814 601 771.2 601C728.3 601 685.7 601 642.8 601C600 601 557 601 514.2 601C471.3 601 428.7 601 385.8 601C343 601 300 601 257.2 601C214.3 601 171.7 601 128.8 601C86 601 43 601 21.5 601L0 601Z" fill="#e31d0f"></path><path d="M0 442L21.5 444.3C43 446.7 86 451.3 128.8 455.2C171.7 459 214.3 462 257.2 466.5C300 471 343 477 385.8 481.7C428.7 486.3 471.3 489.7 514.2 491.8C557 494 600 495 642.8 495.3C685.7 495.7 728.3 495.3 771.2 492.8C814 490.3 857 485.7 878.5 483.3L900 481L900 601L878.5 601C857 601 814 601 771.2 601C728.3 601 685.7 601 642.8 601C600 601 557 601 514.2 601C471.3 601 428.7 601 385.8 601C343 601 300 601 257.2 601C214.3 601 171.7 601 128.8 601C86 601 43 601 21.5 601L0 601Z" fill="#f23f4b"></path><path d="M0 523L21.5 520.8C43 518.7 86 514.3 128.8 508.2C171.7 502 214.3 494 257.2 488.5C300 483 343 480 385.8 483.8C428.7 487.7 471.3 498.3 514.2 501.8C557 505.3 600 501.7 642.8 501.2C685.7 500.7 728.3 503.3 771.2 503.2C814 503 857 500 878.5 498.5L900 497L900 601L878.5 601C857 601 814 601 771.2 601C728.3 601 685.7 601 642.8 601C600 601 557 601 514.2 601C471.3 601 428.7 601 385.8 601C343 601 300 601 257.2 601C214.3 601 171.7 601 128.8 601C86 601 43 601 21.5 601L0 601Z" fill="#f6617a"></path><path d="M0 552L21.5 545.3C43 538.7 86 525.3 128.8 523.8C171.7 522.3 214.3 532.7 257.2 533.2C300 533.7 343 524.3 385.8 519C428.7 513.7 471.3 512.3 514.2 510.5C557 508.7 600 506.3 642.8 507.3C685.7 508.3 728.3 512.7 771.2 517.2C814 521.7 857 526.3 878.5 528.7L900 531L900 601L878.5 601C857 601 814 601 771.2 601C728.3 601 685.7 601 642.8 601C600 601 557 601 514.2 601C471.3 601 428.7 601 385.8 601C343 601 300 601 257.2 601C214.3 601 171.7 601 128.8 601C86 601 43 601 21.5 601L0 601Z" fill="#f282a1"></path><path d="M0 577L21.5 577.2C43 577.3 86 577.7 128.8 577.3C171.7 577 214.3 576 257.2 575.5C300 575 343 575 385.8 570.2C428.7 565.3 471.3 555.7 514.2 554.3C557 553 600 560 642.8 564.7C685.7 569.3 728.3 571.7 771.2 570.8C814 570 857 566 878.5 564L900 562L900 601L878.5 601C857 601 814 601 771.2 601C728.3 601 685.7 601 642.8 601C600 601 557 601 514.2 601C471.3 601 428.7 601 385.8 601C343 601 300 601 257.2 601C214.3 601 171.7 601 128.8 601C86 601 43 601 21.5 601L0 601Z" fill="#e9a1bf"></path></svg>